Coordinates
version=1
nRows=33
nColumns=33
inDegrees=yes

Units are S.I. units (second, meters, Newtons, ...)
Angles are in degrees.

endheader
time	ground_thorax_rot_x	ground_thorax_rot_y	ground_thorax_rot_z	ground_thorax_tx	ground_thorax_ty	ground_thorax_tz	clav_prot_r	clav_elev_r	scapula_abduction_r	scapula_elevation_r	scapula_upward_rot_r	scapula_winging_r	shoulder_elv_r	plane_of_elev_r	axial_rot_r	elbow_flexion_r	pro_sup_r	wrist_flex_r	wrist_dev_r	clav_prot_l	clav_elev_l	scapula_abduction_l	scapula_elevation_l	scapula_upward_rot_l	scapula_winging_l	shoulder_elv_l	plane_of_elev_l	axial_rot_l	elbow_flexion_l	pro_sup_l	wrist_flex_l	wrist_dev_l	
9.2500	-38.951657	-8.299635	13.775160	-250.966083	848.224918	4.544447	6.973364	-39.837105	37.455135	-45.000000	43.544515	2507.429115	-2639.611371	-90.000000	-72.002977	1801.591074	-120.888074	19.419034	14.988359	-2.372842	42.134232	-45.000000	-45.000000	35.659972	-2400.244389	-272.082806	11.145602	180.000000	1093.099534	206.432365	10.695149	-16.347669	
9.2600	-38.958814	-8.425802	13.888570	-250.717724	847.802283	4.538518	7.021344	-39.845468	37.494330	-45.000000	43.468770	2507.383187	-2639.497553	-90.000000	-72.104517	1801.705751	-120.921704	19.421464	14.989770	-2.337850	42.166794	-45.000000	-45.000000	35.475113	-2400.222565	-272.146387	11.134188	180.000000	1093.074569	206.554916	10.606472	-16.400520	
9.2700	-38.966254	-8.608303	14.043943	-250.450148	847.388858	4.536771	7.030010	-39.850395	37.594002	-45.000000	43.370175	2507.314646	-2639.382482	-90.000000	-72.207526	1801.789673	-120.947938	19.413919	14.962885	-2.304559	42.194553	-45.000000	-45.000000	35.292551	-2400.189246	-272.163483	11.130661	180.000000	1093.063627	206.670583	10.455465	-16.445124	
9.2800	-38.977362	-8.732345	14.150440	-250.137319	846.990814	4.545054	7.071825	-39.856639	37.651331	-45.000000	43.307995	2507.272094	-2639.296813	-90.000000	-72.280942	1801.868701	-120.950886	19.416153	14.963246	-2.282766	42.217521	-45.000000	-45.000000	35.150047	-2400.171190	-272.216126	11.117485	180.000000	1093.052108	206.795569	10.379110	-16.487336	
9.2900	-38.992941	-8.837131	14.238980	-249.779443	846.611060	4.561998	7.116850	-39.862102	37.707388	-45.000000	43.275138	2507.236627	-2639.227299	-90.000000	-72.338262	1801.931491	-120.931093	19.423186	14.973231	-2.268903	42.237057	-45.000000	-45.000000	35.038650	-2400.158741	-272.273765	11.103697	180.000000	1093.043689	206.923112	10.330931	-16.525331	
9.3000	-39.009785	-8.934322	14.320328	-249.372929	846.252118	4.586712	7.158735	-39.864374	37.759311	-45.000000	43.264955	2507.212106	-2639.173922	-90.000000	-72.379532	1801.981920	-120.885949	19.427875	14.986307	-2.263192	42.250652	-45.000000	-45.000000	34.957806	-2400.149774	-272.326184	11.086979	180.000000	1093.034697	207.051026	10.296585	-16.558369	
9.3100	-39.032206	-9.012896	14.387079	-248.920523	845.914358	4.616393	7.197930	-39.866995	37.811635	-45.000000	43.293552	2507.189459	-2639.127702	-90.000000	-72.413743	1802.022528	-120.817420	19.435220	15.005634	-2.262471	42.262526	-45.000000	-45.000000	34.905397	-2400.146051	-272.381613	11.073655	180.000000	1093.025293	207.179169	10.277050	-16.587608	
9.3200	-39.051075	-9.102518	14.466851	-248.427021	845.596576	4.647822	7.219126	-39.863077	37.870036	-45.000000	43.329118	2507.170770	-2639.085991	-90.000000	-72.443485	1802.056264	-120.728478	19.433592	15.017644	-2.267234	42.269675	-45.000000	-45.000000	34.872940	-2400.141568	-272.417693	11.058525	180.000000	1093.013270	207.304369	10.246386	-16.612629	
9.3300	-39.072790	-9.163088	14.530678	-247.895581	845.296648	4.678626	7.248851	-39.864763	37.912852	-45.000000	43.395239	2507.157770	-2639.046569	-90.000000	-72.470790	1802.092739	-120.622822	19.436858	15.037931	-2.274172	42.276165	-45.000000	-45.000000	34.861888	-2400.144762	-272.465865	11.048194	180.000000	1092.998808	207.430161	10.228901	-16.634052	
9.3400	-39.090338	-9.217666	14.593790	-247.328056	845.012396	4.707482	7.266168	-39.859471	37.947355	-45.000000	43.482805	2507.150364	-2639.013854	-90.000000	-72.490983	1802.129900	-120.502562	19.430722	15.052635	-2.284717	42.278283	-45.000000	-45.000000	34.868913	-2400.148184	-272.504781	11.037158	180.000000	1092.976022	207.554555	10.209000	-16.653463	
9.3500	-39.108254	-9.242560	14.635238	-246.724949	844.741618	4.733984	7.281497	-39.855716	37.982571	-45.000000	43.621848	2507.137497	-2638.988410	-90.000000	-72.503334	1802.160830	-120.371819	19.426993	15.069724	-2.297773	42.279554	-45.000000	-45.000000	34.900315	-2400.154865	-272.549841	11.032347	180.000000	1092.950802	207.679311	10.199469	-16.668760	
9.3600	-39.115632	-9.270668	14.679881	-246.085658	844.481902	4.758275	7.270618	-39.839207	38.036101	-45.000000	43.790312	2507.118681	-2638.975279	-90.000000	-72.502695	1802.177954	-120.232309	19.414041	15.077460	-2.316991	42.276209	-45.000000	-45.000000	34.956779	-2400.154878	-272.572641	11.025109	180.000000	1092.921208	207.801105	10.189206	-16.680203	
9.3700	-39.113565	-9.296610	14.730071	-245.408422	844.230236	4.780638	7.250718	-39.823323	38.123476	-45.000000	43.971712	2507.082575	-2638.970023	-90.000000	-72.493655	1802.171970	-120.088690	19.407296	15.084223	-2.341567	42.270910	-45.000000	-45.000000	35.036432	-2400.154657	-272.579093	11.022033	180.000000	1092.905872	207.920129	10.185883	-16.680060	
9.3800	-39.100932	-9.325969	14.784397	-244.690416	843.982678	4.801169	7.206797	-39.797907	38.242929	-45.000000	44.178973	2507.036174	-2638.972617	-90.000000	-72.476164	1802.152513	-119.937502	19.393977	15.082733	-2.368254	42.261901	-45.000000	-45.000000	35.135430	-2400.147806	-272.568575	11.018821	180.000000	1092.891245	208.032647	10.184169	-16.674555	
9.3900	-39.079247	-9.342693	14.841565	-243.928158	843.734194	4.819648	7.166296	-39.776570	38.373047	-45.000000	44.389633	2506.988431	-2638.983958	-90.000000	-72.449421	1802.124471	-119.777908	19.385379	15.082830	-2.399386	42.248986	-45.000000	-45.000000	35.259575	-2400.140681	-272.559704	11.016993	180.000000	1092.886690	208.139409	10.188067	-16.659027	
9.4000	-39.047114	-9.353623	14.910069	-243.117597	843.478718	4.835634	7.139961	-39.756677	38.486266	-45.000000	44.591481	2506.959527	-2639.001580	-90.000000	-72.415894	1802.104262	-119.605138	19.375150	15.084181	-2.435817	42.231101	-45.000000	-45.000000	35.399482	-2400.133077	-272.554557	11.011251	180.000000	1092.881475	208.238723	10.193430	-16.637572	
9.4100	-39.001768	-9.374154	15.014503	-242.255065	843.209635	4.848685	7.150195	-39.747578	38.574289	-45.000000	44.737157	2506.950593	-2639.019931	-90.000000	-72.381429	1802.090147	-119.419845	19.372427	15.092536	-2.481586	42.210359	-45.000000	-45.000000	35.543492	-2400.131763	-272.549407	11.000474	180.000000	1092.889140	208.332127	10.199753	-16.603965	
9.4200	-38.949418	-9.393626	15.135052	-241.336879	842.920109	4.858642	7.183419	-39.742430	38.636720	-45.000000	44.870041	2506.962384	-2639.033524	-90.000000	-72.351502	1802.091960	-119.217280	19.367551	15.103653	-2.526991	42.189583	-45.000000	-45.000000	35.678756	-2400.134904	-272.558114	10.987500	180.000000	1092.892554	208.419818	10.207397	-16.567235	
9.4300	-38.884821	-9.435715	15.296690	-240.360560	842.603929	4.865780	7.233619	-39.739693	38.690742	-45.000000	44.952257	2506.984967	-2639.041169	-90.000000	-72.327505	1802.097764	-118.998574	19.363397	15.116292	-2.575022	42.168902	-45.000000	-45.000000	35.801431	-2400.141234	-272.563514	10.971576	180.000000	1092.902390	208.504288	10.214257	-16.523454	
9.4400	-38.810221	-9.499878	15.493474	-239.323828	842.255675	4.870888	7.290409	-39.737851	38.753456	-45.000000	45.000000	2507.010163	-2639.036271	-90.000000	-72.316096	1802.106726	-118.763017	19.358213	15.127698	-2.618861	42.150670	-45.000000	-45.000000	35.901155	-2400.150497	-272.568196	10.956408	180.000000	1092.917657	208.586996	10.221128	-16.474654	
9.4500	-38.721883	-9.600579	15.737546	-238.225375	841.871274	4.875137	7.348673	-39.735544	38.845745	-45.000000	45.000000	2507.025166	-2639.015474	-90.000000	-72.320762	1802.108633	-118.512235	19.352891	15.135009	-2.661888	42.136297	-45.000000	-45.000000	35.975300	-2400.160673	-272.561471	10.940091	180.000000	1092.944100	208.669285	10.227182	-16.418674	
9.4600	-38.626556	-9.708922	15.997157	-237.063525	841.447751	4.879952	7.395162	-39.731394	38.960595	-45.000000	45.000000	2507.032812	-2638.982079	-90.000000	-72.338029	1802.112357	-118.243004	19.343811	15.137465	-2.694713	42.125155	-45.000000	-45.000000	36.031248	-2400.169364	-272.565341	10.927645	180.000000	1092.971835	208.752428	10.235663	-16.360571	
9.4700	-38.522487	-9.822670	16.273257	-235.837031	840.983360	4.886750	7.443449	-39.727410	39.080729	-45.000000	45.000000	2507.039384	-2638.941918	-90.000000	-72.361956	1802.119800	-117.954807	19.332262	15.136764	-2.724556	42.114950	-45.000000	-45.000000	36.079364	-2400.175400	-272.579189	10.915793	180.000000	1092.998981	208.837587	10.245599	-16.298807	
9.4800	-38.408725	-9.939477	16.564253	-234.544187	840.477086	4.896865	7.487715	-39.721158	39.203504	-45.000000	45.000000	2507.045372	-2638.898065	-90.000000	-72.389386	1802.128534	-117.648166	19.318181	15.132076	-2.751006	42.105674	-45.000000	-45.000000	36.123875	-2400.178204	-272.603473	10.904374	180.000000	1093.027575	208.926044	10.258031	-16.232930	
9.4900	-38.283485	-10.063982	16.873624	-233.183635	839.928384	4.911280	7.541554	-39.715656	39.327069	-45.000000	45.000000	2507.051390	-2638.852913	-90.000000	-72.417903	1802.137798	-117.324517	19.302106	15.123543	-2.780544	42.098991	-45.000000	-45.000000	36.159860	-2400.179504	-272.635608	10.889763	180.000000	1093.052403	209.018021	10.271348	-16.162621	
9.5000	-38.147396	-10.192230	17.197501	-231.754090	839.336617	4.930483	7.589869	-39.706682	39.454224	-45.000000	45.000000	2507.055013	-2638.809782	-90.000000	-72.444137	1802.144758	-116.985229	19.283496	15.109928	-2.805254	42.094544	-45.000000	-45.000000	36.185355	-2400.177475	-272.680428	10.877091	180.000000	1093.075974	209.115623	10.288010	-16.089678	
9.5100	-38.001019	-10.328189	17.538155	-230.254909	838.700665	4.954171	7.643831	-39.697020	39.585643	-45.000000	45.000000	2507.054751	-2638.769628	-90.000000	-72.467092	1802.150106	-116.631811	19.262078	15.091289	-2.826317	42.094805	-45.000000	-45.000000	36.184044	-2400.176395	-272.738787	10.866998	180.000000	1093.095203	209.220476	10.307384	-16.015220	
9.5200	-37.844379	-10.469726	17.892976	-228.685691	838.018665	4.981419	7.690909	-39.682636	39.721908	-45.000000	45.000000	2507.047987	-2638.732713	-90.000000	-72.486414	1802.152752	-116.265446	19.238071	15.067275	-2.835081	42.100960	-45.000000	-45.000000	36.151983	-2400.173146	-272.817241	10.862655	180.000000	1093.111930	209.335565	10.332231	-15.942881	
9.5300	-37.677605	-10.617983	18.261153	-227.045810	837.287745	5.010748	7.737295	-39.665499	39.862281	-45.000000	45.000000	2507.034612	-2638.697661	-90.000000	-72.503320	1802.155869	-115.886209	19.211939	15.038567	-2.833778	42.114589	-45.000000	-45.000000	36.089012	-2400.168347	-272.914494	10.861397	180.000000	1093.124014	209.463507	10.361662	-15.874007	
9.5400	-37.502055	-10.775472	18.645184	-225.333689	836.504208	5.040632	7.773891	-39.643616	40.004821	-45.000000	45.000000	2507.012752	-2638.662923	-90.000000	-72.519219	1802.162306	-115.494723	19.182967	15.005160	-2.817202	42.131709	-45.000000	-45.000000	36.004536	-2400.159838	-273.026233	10.864399	180.000000	1093.138614	209.607333	10.394408	-15.806524	
9.5500	-37.317304	-10.940590	19.043380	-223.545987	835.663551	5.069762	7.777546	-39.609115	40.144795	-45.000000	45.000000	2506.987392	-2638.616613	-90.000000	-72.545511	1802.181527	-115.086870	19.157649	14.970744	-2.777521	42.146451	-45.000000	-45.000000	35.939730	-2400.136061	-273.136201	10.874287	180.000000	1093.167455	209.772076	10.432834	-15.741140	
9.5600	-37.123490	-11.113541	19.457790	-221.677351	834.761003	5.097520	7.760898	-39.565138	40.281027	-45.000000	45.000000	2506.960322	-2638.559869	-90.000000	-72.580780	1802.211498	-114.662125	19.135231	14.934767	-2.717963	42.158284	-45.000000	-45.000000	35.891886	-2400.097144	-273.246472	10.891881	180.000000	1093.208406	209.958564	10.475226	-15.676486	
9.5700	-36.920162	-11.293985	19.885595	-219.721115	833.791840	5.123733	7.721550	-39.511018	40.417736	-45.000000	45.000000	2506.929511	-2638.486469	-90.000000	-72.630770	1802.254875	-114.217925	19.111923	14.895147	-2.649638	42.162264	-45.000000	-44.999999	35.894099	-2400.041508	-273.339485	10.908199	180.000000	1093.262080	210.168486	10.516153	-15.607966	
